<?xml version="1.0" standalone="no"?>
<!DOCTYPE svg PUBLIC "-//W3C//DTD SVG 20010904//EN"
 "http://www.w3.org/TR/2001/REC-SVG-20010904/DTD/svg10.dtd">
<svg version="1.0" xmlns="http://www.w3.org/2000/svg"
 width="32px" height="32px" viewBox="0 0 1200.000000 1600.000000"
 preserveAspectRatio="xMidYMid meet">

<g transform="translate(0.000000,1600.000000) scale(0.100000,-0.100000)"
fill="#000000" stroke="none">
<path d="M1752 14984 c-287 -35 -590 -144 -832 -301 -807 -523 -1131 -1537
-775 -2423 150 -374 437 -719 778 -935 l77 -48 0 -3277 0 -3277 -62 -39 c-186
-114 -415 -326 -550 -509 -572 -771 -502 -1854 166 -2553 768 -803 2030 -831
2830 -62 696 670 815 1732 284 2534 -151 228 -381 452 -608 592 l-60 37 0
1797 0 1797 153 -152 c1181 -1178 2635 -1927 4103 -2115 283 -36 384 -42 703
-45 l313 -2 67 -99 c276 -414 685 -712 1143 -834 607 -160 1232 -37 1730 342
546 414 846 1101 778 1779 -46 458 -234 864 -554 1197 -394 409 -942 631
-1506 609 -523 -21 -987 -228 -1351 -604 -97 -100 -208 -241 -270 -345 l-34
-58 -195 6 c-701 18 -1153 106 -1725 336 -1326 532 -2469 1686 -3009 3039
l-46 117 76 73 c636 614 803 1535 420 2314 -109 221 -240 401 -417 570 -433
416 -1026 612 -1627 539z m498 -1017 c352 -91 623 -361 717 -715 34 -128 38
-342 9 -467 -94 -405 -405 -699 -815 -770 -515 -90 -1016 249 -1137 770 -29
125 -25 339 9 467 102 384 401 657 801 734 107 20 298 12 416 -19z m7916
-5982 c390 -69 699 -350 801 -732 36 -135 39 -354 6 -483 -47 -185 -141 -351
-269 -478 -556 -548 -1484 -284 -1677 478 -32 129 -30 349 6 482 134 503 626
821 1133 733z m-8000 -4000 c406 -71 716 -366 810 -770 27 -116 26 -330 -3
-445 -74 -295 -263 -531 -530 -664 -385 -192 -844 -116 -1150 190 -446 446
-368 1196 160 1539 127 83 261 132 427 158 62 10 205 6 286 -8z"/>
</g>
</svg>
